<svg width="20" height="20" viewBox="0 0 20 20" xmlns="http://www.w3.org/2000/svg" xmlns:xlink="http://www.w3.org/1999/xlink"><defs><path d="M17.5 5.25a.75.75 0 0 0-.74-.75H3.24a.75.75 0 0 0-.74.75c0 .41.34.75.74.75h13.52c.4 0 .74-.33.74-.75Zm0 5a.75.75 0 0 0-.74-.75H3.24a.75.75 0 0 0-.74.75c0 .41.34.75.74.75h13.52c.4 0 .74-.33.74-.75Zm-15 5c0 .41.34.75.76.75h8.98c.42 0 .76-.33.76-.75a.75.75 0 0 0-.76-.75H3.26a.75.75 0 0 0-.76.75Z" id="article_outline_20__path-1"></path></defs><g id="article_outline_20__Page-2" stroke="none" stroke-width="1" fill="none" fill-rule="evenodd"><g id="article_outline_20__article_outline_20"><path id="article_outline_20__Shape" d="M0 0h20v20H0z"></path><mask id="article_outline_20__mask-2" fill="#fff"><use xlink:href="#article_outline_20__path-1"></use></mask><use id="article_outline_20__Icon-Color" fill="grey" fill-rule="nonzero" xlink:href="#article_outline_20__path-1"></use></g></g></svg>