<svg fill="none" height="20" viewBox="0 0 20 20" width="20" xmlns="http://www.w3.org/2000/svg"><path clip-rule="evenodd" d="M7.25 5.75a2.75 2.75 0 0 1 5.5 0V6h-5.5zM5.75 6v-.25a4.25 4.25 0 0 1 8.5 0V6c1.01.02 1.62.08 2.11.33a3 3 0 0 1 1.31 1.3c.33.65.33 1.49.33 3.17v.5c0 2.52 0 3.78-.49 4.74a4.5 4.5 0 0 1-1.97 1.97c-.96.49-2.22.49-4.74.49H9.2c-2.52 0-3.78 0-4.74-.49a4.5 4.5 0 0 1-1.97-1.97C2 15.08 2 13.82 2 11.3v-.5c0-1.68 0-2.52.33-3.16a3 3 0 0 1 1.3-1.31c.5-.25 1.1-.31 2.12-.33zm-.8 1.54c.43-.04.99-.04 1.85-.04h6.4c.86 0 1.42 0 1.85.04.4.03.56.09.63.12.28.15.51.38.66.66.03.07.1.22.12.63.04.43.04.99.04 1.85v.5c0 1.28 0 2.16-.06 2.83-.05.66-.15 1-.27 1.23a3 3 0 0 1-1.3 1.31c-.24.12-.58.22-1.24.27-.67.06-1.55.06-2.83.06H9.2c-1.28 0-2.16 0-2.83-.06-.66-.05-1-.15-1.23-.27a3 3 0 0 1-1.31-1.3 3.24 3.24 0 0 1-.27-1.24c-.06-.67-.06-1.55-.06-2.83v-.5c0-.86 0-1.42.04-1.85.03-.4.09-.56.12-.63.15-.28.38-.51.66-.66.07-.03.22-.1.63-.12zm.8 2.33a.87.87 0 1 1 1.75 0 .87.87 0 0 1-1.75 0zM13.38 9a.88.88 0 1 0 0 1.75.88.88 0 0 0 0-1.75z" fill="cornflowerblue" fill-rule="evenodd"></path></svg>