<svg fill="cornflowerblue" height="20" viewBox="0 0 20 20" width="20" xmlns="http://www.w3.org/2000/svg"><path fill="cornflowerblue" d="M5.5 11a.75.75 0 0 1 .75.75v1a.75.75 0 0 1-.75.75.75.75 0 0 1-.75-.75v-1A.75.75 0 0 1 5.5 11Zm3.75-.25a.75.75 0 0 0-1.5 0v2.75a.75.75 0 0 0 1.5 0v-2.75ZM14.5 10a.75.75 0 0 1 .75.76v2.8a.75.75 0 0 1-1.5-.01v-2.8a.75.75 0 0 1 .75-.75Zm-2.25-.74a.75.75 0 0 0-1.5 0v4.5a.75.75 0 0 0 1.5 0v-4.5Z"></path><path fill="currentColor" fill-rule="evenodd" d="M7.92 2c-.88 0-1.6 0-2.17.05a4.1 4.1 0 0 0-1.57.39 4 4 0 0 0-1.74 1.74 4.1 4.1 0 0 0-.4 1.57C2 6.33 2 7.04 2 7.92v4.16c0 .88 0 1.6.05 2.17.04.58.15 1.1.39 1.57a4 4 0 0 0 1.74 1.74c.48.24.99.35 1.57.4.58.04 1.29.04 2.17.04h4.16c.88 0 1.6 0 2.17-.05a4.1 4.1 0 0 0 1.57-.39 4 4 0 0 0 1.74-1.74c.24-.47.35-.99.4-1.57.04-.58.04-1.29.04-2.17V7.92c0-.88 0-1.6-.05-2.17a4.1 4.1 0 0 0-.39-1.57 4 4 0 0 0-1.74-1.74 4.1 4.1 0 0 0-1.57-.4C13.67 2 12.96 2 12.08 2H7.92ZM4.87 3.77c.22-.11.51-.19 1-.23.51-.04 1.16-.04 2.08-.04h4.1c.92 0 1.57 0 2.07.04.5.04.8.12 1.02.23a2.5 2.5 0 0 1 1.09 1.1c.11.22.19.51.23 1 .03.42.04.93.04 1.6-.38-.28-.85-.6-1.35-.9-1.04-.65-2.4-1.32-3.65-1.32-1.43 0-2.53.64-3.54 1.23l-.42.25A8.5 8.5 0 0 1 3.5 7.99v-.04c0-.92 0-1.57.04-2.07.04-.5.12-.8.23-1.01a2.5 2.5 0 0 1 1.1-1.1ZM3.5 9.5v2.55c0 .92 0 1.57.04 2.07.04.5.12.8.23 1.02a2.5 2.5 0 0 0 1.1 1.09c.22.11.51.19 1 .23.51.04 1.16.04 2.08.04h4.1c.92 0 1.57 0 2.07-.04.5-.04.8-.12 1.02-.23a2.5 2.5 0 0 0 1.09-1.1c.11-.22.19-.51.23-1 .04-.51.04-1.16.04-2.08V9.36a30.58 30.58 0 0 1-.17-.13c-.43-.33-1.14-.88-1.96-1.39a6.19 6.19 0 0 0-2.87-1.09c-1 0-1.73.42-2.77 1.02a70.79 70.79 0 0 1-.45.26A9.97 9.97 0 0 1 3.5 9.5Z" clip-rule="evenodd"></path></svg>